# Blender v2.90.0 OBJ File: ''
# www.blender.org
mtllib spaceship.mtl
o spaceship
v -0.466043 -0.046099 0.061004
v -0.496632 -0.038727 -0.744142
v -0.284772 -0.093266 -0.411636
v -0.169612 -0.147446 -0.381196
v -0.169612 -0.147446 0.061004
v -0.091309 -0.100093 0.472421
v -0.182617 -0.069341 0.472421
v -0.182617 -0.001722 0.472421
v -0.466043 0.045632 0.061004
v -0.647568 0.071442 -0.238048
v -0.169612 0.164038 0.061004
v -0.284772 0.045632 -0.411636
v -0.169612 0.116537 -0.381196
v -0.053437 -0.049075 0.720448
v -0.053437 -0.102143 0.720448
v -0.040834 -0.049075 0.734564
v -0.040834 -0.102143 0.734564
v 0.000000 -0.049075 0.744142
v 0.000000 -0.118734 0.744142
v 0.040834 -0.049075 0.734564
v 0.000000 0.045779 0.472421
v 0.000000 -0.116684 0.472421
v 0.091309 -0.100093 0.472421
v 0.040834 -0.102143 0.734564
v 0.000000 0.116537 -0.350755
v 0.000000 0.164038 0.061004
v 0.169612 -0.147446 -0.381196
v 0.000000 -0.164038 -0.350755
v 0.169612 0.164038 0.061004
v 0.169612 0.116537 -0.381196
v 0.000000 -0.164038 0.061004
v 0.169612 -0.147446 0.061004
v -0.647568 -0.038727 -0.238048
v -0.496632 0.071442 -0.744142
v -0.091309 0.045779 0.472421
v 0.466043 -0.046099 0.061004
v 0.647568 0.071442 -0.238048
v 0.466043 0.045632 0.061004
v 0.496632 -0.038727 -0.744142
v 0.647568 -0.038727 -0.238048
v 0.284772 -0.093266 -0.411636
v 0.182617 -0.001722 0.472421
v 0.182617 -0.069341 0.472421
v 0.284772 0.045632 -0.411636
v 0.053437 -0.049075 0.720448
v 0.053437 -0.102143 0.720448
v 0.496632 0.071442 -0.744142
v 0.091309 0.045779 0.472421
vt 0.563566 0.545940
vt 0.429268 0.192678
vt 0.569896 0.302483
vt 0.624559 0.294368
vt 0.691147 0.491418
vt 0.784216 0.662845
vt 0.744934 0.679623
vt 0.574655 0.938675
vt 0.812523 0.974287
vt 0.571615 0.979366
vt 0.403311 0.979672
vt 0.039192 0.653812
vt 0.061959 0.429396
vt 0.161607 0.606865
vt 0.512423 0.048557
vt 0.632712 0.074596
vt 0.513937 0.121224
vt 0.221651 0.811229
vt 0.032706 0.811617
vt 0.446770 0.021568
vt 0.262334 0.782589
vt 0.947279 0.962145
vt 0.949037 0.938604
vt 0.956257 0.962742
vt 0.837484 0.766770
vt 0.844883 0.770887
vt 0.814764 0.944292
vt 0.970947 0.963720
vt 0.973255 0.932819
vt 0.075068 0.280788
vt 0.094071 0.276931
vt 0.137303 0.398481
vt 0.958015 0.939202
vt 0.863992 0.767556
vt 0.823004 0.646543
vt 0.250291 0.851448
vt 0.266762 0.881665
vt 0.252058 0.882385
vt 0.860636 0.631358
vt 0.879059 0.756806
vt 0.353821 0.161671
vt 0.449647 0.159674
vt 0.325248 0.738068
vt 0.231464 0.574696
vt 0.255117 0.025561
vt 0.350763 0.014884
vt 0.301322 0.542527
vt 0.402049 0.718252
vt 0.700699 0.278130
vt 0.766514 0.235879
vt 0.762703 0.461616
vt 0.833102 0.432929
vt 0.406962 0.930801
vt 0.442314 0.444225
vt 0.210302 0.988363
vt 0.245595 0.920063
vt 0.633913 0.132233
vt 0.241944 0.968934
vt 0.060435 0.292420
vt 0.099696 0.415799
vt 0.058464 0.300538
vt 0.648727 0.864289
vt 0.819326 0.908284
vt 0.651053 0.905028
vt 0.953616 0.385230
vt 0.844919 0.021420
vt 0.984290 0.220918
vt 0.808233 0.204282
vt 0.410271 0.895727
vt 0.408557 0.865697
vt 0.423087 0.477033
vt 0.456227 0.703210
vt 0.566130 0.565981
vt 0.190646 0.055261
vt 0.192160 0.127928
vt 0.071545 0.086287
vt 0.257995 0.163667
vt 0.275749 0.881225
vt 0.274404 0.857657
vt 0.102481 0.280268
vt 0.212387 0.360126
vt 0.265416 0.858097
vt 0.882207 0.748343
vt 0.897773 0.616649
vt 0.816532 0.859357
vt 0.978063 0.851448
vt 0.980856 0.900375
vt 0.619395 0.799980
vt 0.072746 0.143924
vt 0.174910 0.381164
vn -0.2502 -0.9682 0.0006
vn -0.3235 -0.9462 -0.0000
vn -0.3158 -0.9343 0.1651
vn -0.3186 -0.9329 0.1677
vn -0.3148 -0.9349 0.1641
vn -0.8235 0.0000 0.5673
vn -0.8548 0.0000 0.5189
vn -0.3487 0.8731 0.3407
vn 0.8434 0.0000 -0.5374
vn -0.4103 -0.9095 -0.0666
vn 0.0862 0.9958 0.0321
vn 0.0832 0.9962 0.0257
vn 0.0868 0.9957 0.0333
vn 0.2556 0.0000 -0.9668
vn -0.5043 0.8586 -0.0922
vn -0.8869 0.0000 0.4619
vn -0.7459 0.0000 0.6660
vn 0.0112 -0.9999 -0.0100
vn -0.2284 0.0000 0.9736
vn 0.0771 0.9413 0.3286
vn -0.1788 -0.9839 -0.0074
vn 0.2284 0.0000 0.9736
vn 0.3892 -0.9187 0.0677
vn 0.1766 0.0000 -0.9843
vn 0.0000 0.9934 -0.1146
vn -0.1766 0.0000 -0.9843
vn -0.0192 0.9941 -0.1068
vn 0.0974 -0.9952 -0.0000
vn -0.0974 -0.9952 -0.0000
vn -0.0965 -0.9866 0.1319
vn 0.1776 -0.9776 0.1125
vn -0.0272 -0.9996 -0.0081
vn 0.0827 0.9963 0.0247
vn -0.9583 -0.0000 -0.2858
vn -0.3892 -0.9187 0.0677
vn 0.0000 0.9403 0.3403
vn -0.4230 0.8237 0.3776
vn -0.4240 0.8230 0.3780
vn -0.4228 0.8239 0.3775
vn 0.0192 0.9941 -0.1068
vn -0.3672 0.9194 -0.1408
vn 0.0000 0.9611 0.2763
vn -0.4366 0.8392 0.3243
vn -0.3189 -0.9328 0.1681
vn -0.4270 0.8209 0.3792
vn -0.0771 0.9413 0.3286
vn -0.1776 -0.9776 0.1125
vn 0.1788 -0.9839 -0.0074
vn -0.3189 -0.9469 0.0409
vn 0.8548 -0.0000 0.5189
vn 0.0272 -0.9996 -0.0081
vn 0.4103 -0.9095 -0.0666
vn 0.3158 -0.9343 0.1651
vn 0.3186 -0.9329 0.1677
vn 0.3189 -0.9328 0.1681
vn 0.8235 0.0000 0.5673
vn 0.3672 0.9194 -0.1408
vn -0.0868 0.9957 0.0333
vn -0.0832 0.9962 0.0257
vn -0.0862 0.9958 0.0321
vn 0.2502 -0.9682 0.0006
vn -0.2556 0.0000 -0.9668
vn -0.8434 0.0000 -0.5374
vn 0.7459 0.0000 0.6660
vn 0.4228 0.8239 0.3775
vn 0.4240 0.8230 0.3780
vn 0.4230 0.8237 0.3776
vn 0.3189 -0.9469 0.0409
vn 0.8869 0.0000 0.4619
vn 0.9583 -0.0000 -0.2858
vn -0.0827 0.9963 0.0247
vn -0.0112 -0.9999 -0.0100
vn 0.4270 0.8209 0.3792
vn 0.5043 0.8586 -0.0922
vn 0.3487 0.8731 0.3407
vn 0.3235 -0.9462 -0.0000
vn 0.0965 -0.9866 0.1319
vn 0.4366 0.8392 0.3243
vn 0.3148 -0.9349 0.1641
usemtl cube1_auv
s 1
f 1/1/1 2/2/1 3/3/1
f 1/1/2 4/4/2 5/5/2
f 1/1/3 6/6/4 7/7/5
f 1/8/6 8/9/6 9/10/6
f 9/10/7 10/11/7 1/8/7
f 9/12/8 8/13/8 11/14/8
f 3/15/9 2/16/9 12/17/9
f 3/3/10 4/4/10 1/1/10
f 12/18/11 10/19/12 9/12/13
f 12/17/14 4/20/14 3/15/14
f 12/18/15 11/14/15 13/21/15
f 14/22/16 8/9/16 15/23/16
f 15/23/17 16/24/17 14/22/17
f 15/25/18 6/6/18 17/26/18
f 15/23/16 8/9/16 7/27/16
f 18/28/19 16/24/19 19/29/19
f 18/30/20 20/31/20 21/32/20
f 19/29/19 16/24/19 17/33/19
f 19/34/21 6/6/21 22/35/21
f 19/36/22 20/37/22 18/38/22
f 19/34/23 23/39/23 24/40/23
f 25/41/24 4/20/24 13/42/24
f 25/43/25 11/14/25 26/44/25
f 25/41/26 27/45/26 28/46/26
f 25/43/27 29/47/27 30/48/27
f 28/46/24 4/20/24 25/41/24
f 28/49/28 27/50/28 31/51/28
f 26/44/25 29/47/25 25/43/25
f 31/51/29 4/4/29 28/49/29
f 31/51/30 6/6/30 5/5/30
f 31/51/28 27/50/28 32/52/28
f 31/51/31 23/39/31 22/35/31
f 33/53/7 1/8/7 10/11/7
f 33/54/32 2/2/32 1/1/32
f 10/19/12 12/18/11 34/55/33
f 10/11/34 2/56/34 33/53/34
f 34/57/9 12/17/9 2/16/9
f 34/58/34 2/56/34 10/11/34
f 17/33/17 16/24/17 15/23/17
f 17/26/35 6/6/35 19/34/35
f 16/59/36 21/32/36 35/60/36
f 16/59/37 8/13/38 14/61/39
f 13/42/14 4/20/14 12/17/14
f 13/21/40 11/14/40 25/43/40
f 11/14/41 12/18/41 9/12/41
f 11/14/42 21/32/42 26/44/42
f 11/14/43 8/13/43 35/60/43
f 5/5/29 4/4/29 31/51/29
f 5/5/44 6/6/4 1/1/3
f 35/60/42 21/32/42 11/14/42
f 35/60/45 8/13/38 16/59/37
f 21/32/46 16/59/46 18/30/46
f 21/32/42 29/47/42 26/44/42
f 22/35/47 6/6/47 31/51/47
f 22/35/48 23/39/48 19/34/48
f 7/7/49 6/6/49 15/25/49
f 7/27/6 8/9/6 1/8/6
f 36/62/50 37/63/50 38/64/50
f 36/65/51 39/66/51 40/67/51
f 36/65/52 27/50/52 41/68/52
f 36/65/53 23/39/54 32/52/55
f 36/62/56 42/69/56 43/70/56
f 38/71/57 44/72/57 29/47/57
f 38/71/58 37/73/59 44/72/60
f 38/64/56 42/69/56 36/62/56
f 41/68/61 39/66/61 36/65/61
f 41/74/62 27/45/62 44/75/62
f 44/75/63 39/76/63 41/74/63
f 44/75/62 27/45/62 30/77/62
f 45/78/64 20/37/64 46/79/64
f 45/80/65 42/81/66 20/31/67
f 46/79/64 20/37/64 24/82/64
f 46/83/68 23/39/68 43/84/68
f 46/79/69 42/69/69 45/78/69
f 40/85/70 39/86/70 37/63/70
f 37/63/50 36/62/50 40/85/50
f 37/63/70 39/86/70 47/87/70
f 47/88/71 44/72/60 37/73/59
f 39/76/63 44/75/63 47/89/63
f 24/82/22 20/37/22 19/36/22
f 24/40/72 23/39/72 46/83/72
f 20/31/67 42/81/66 48/90/73
f 30/77/26 27/45/26 25/41/26
f 30/48/74 29/47/74 44/72/74
f 29/47/42 21/32/42 48/90/42
f 29/47/75 42/81/75 38/71/75
f 32/52/76 27/50/76 36/65/76
f 32/52/77 23/39/77 31/51/77
f 48/90/36 21/32/36 20/31/36
f 48/90/78 42/81/78 29/47/78
f 43/84/79 23/39/54 36/65/53
f 43/70/69 42/69/69 46/79/69
